<mxfile host="65bd71144e">
    <diagram id="IKs-HJXDsRrYgf6DWsiw" name="Page-1">
        <mxGraphModel dx="198" dy="138" grid="1" gridSize="10" guides="1" tooltips="1" connect="1" arrows="1" fold="1" page="1" pageScale="1" pageWidth="850" pageHeight="1100" math="0" shadow="0">
            <root>
                <mxCell id="0"/>
                <mxCell id="1" parent="0"/>
                <mxCell id="7" value="" style="ellipse;whiteSpace=wrap;html=1;aspect=fixed;fillStyle=auto;strokeColor=#000000;fillColor=#000000;" parent="1" vertex="1">
                    <mxGeometry x="430" y="1025" width="15" height="15" as="geometry"/>
                </mxCell>
                <mxCell id="8" value="i = 0" style="text;html=1;align=center;verticalAlign=middle;whiteSpace=wrap;rounded=0;strokeColor=none;" parent="1" vertex="1">
                    <mxGeometry x="407.5" y="1040" width="60" height="30" as="geometry"/>
                </mxCell>
                <mxCell id="10" value="" style="ellipse;whiteSpace=wrap;html=1;aspect=fixed;strokeColor=#000000;fillStyle=auto;fillColor=#000000;" parent="1" vertex="1">
                    <mxGeometry x="407.5" y="940" width="15" height="15" as="geometry"/>
                </mxCell>
                <mxCell id="11" value="i = 0" style="text;html=1;align=center;verticalAlign=middle;whiteSpace=wrap;rounded=0;strokeColor=none;" parent="1" vertex="1">
                    <mxGeometry x="407.5" y="955" width="60" height="30" as="geometry"/>
                </mxCell>
                <mxCell id="12" value="" style="ellipse;whiteSpace=wrap;html=1;aspect=fixed;strokeColor=#000000;fillStyle=auto;fillColor=#000000;" parent="1" vertex="1">
                    <mxGeometry x="452.5" y="940" width="15" height="15" as="geometry"/>
                </mxCell>
                <mxCell id="14" value="" style="endArrow=none;html=1;strokeColor=#000000;" parent="1" edge="1">
                    <mxGeometry width="50" height="50" relative="1" as="geometry">
                        <mxPoint x="80" y="900" as="sourcePoint"/>
                        <mxPoint x="800" y="900" as="targetPoint"/>
                    </mxGeometry>
                </mxCell>
                <mxCell id="15" value="k = 0" style="text;html=1;align=center;verticalAlign=middle;whiteSpace=wrap;rounded=0;strokeColor=none;" parent="1" vertex="1">
                    <mxGeometry x="80" y="1017.5" width="60" height="30" as="geometry"/>
                </mxCell>
                <mxCell id="16" value="k = 1" style="text;html=1;align=center;verticalAlign=middle;whiteSpace=wrap;rounded=0;strokeColor=none;" parent="1" vertex="1">
                    <mxGeometry x="80" y="932.5" width="60" height="30" as="geometry"/>
                </mxCell>
                <mxCell id="18" value="" style="endArrow=none;html=1;strokeColor=#000000;" parent="1" edge="1">
                    <mxGeometry width="50" height="50" relative="1" as="geometry">
                        <mxPoint x="80" y="1000" as="sourcePoint"/>
                        <mxPoint x="800" y="1000" as="targetPoint"/>
                    </mxGeometry>
                </mxCell>
                <mxCell id="23" value="" style="ellipse;whiteSpace=wrap;html=1;aspect=fixed;strokeColor=#000000;fillStyle=auto;fillColor=#000000;" parent="1" vertex="1">
                    <mxGeometry x="170" y="810" width="15" height="15" as="geometry"/>
                </mxCell>
                <mxCell id="24" value="i = 0" style="text;html=1;align=center;verticalAlign=middle;whiteSpace=wrap;rounded=0;strokeColor=none;" parent="1" vertex="1">
                    <mxGeometry x="192.5" y="850" width="60" height="30" as="geometry"/>
                </mxCell>
                <mxCell id="25" value="" style="ellipse;whiteSpace=wrap;html=1;aspect=fixed;strokeColor=#000000;fillStyle=auto;fillColor=#000000;" parent="1" vertex="1">
                    <mxGeometry x="260" y="810" width="15" height="15" as="geometry"/>
                </mxCell>
                <mxCell id="26" value="" style="ellipse;whiteSpace=wrap;html=1;aspect=fixed;strokeColor=#000000;fillStyle=auto;fillColor=#000000;" parent="1" vertex="1">
                    <mxGeometry x="400" y="835" width="15" height="15" as="geometry"/>
                </mxCell>
                <mxCell id="27" value="i = 1" style="text;html=1;align=center;verticalAlign=middle;whiteSpace=wrap;rounded=0;strokeColor=none;" parent="1" vertex="1">
                    <mxGeometry x="407.5" y="850" width="60" height="30" as="geometry"/>
                </mxCell>
                <mxCell id="28" value="" style="ellipse;whiteSpace=wrap;html=1;aspect=fixed;strokeColor=#000000;fillStyle=auto;fillColor=#000000;" parent="1" vertex="1">
                    <mxGeometry x="467.5" y="795" width="15" height="15" as="geometry"/>
                </mxCell>
                <mxCell id="32" value="" style="ellipse;whiteSpace=wrap;html=1;aspect=fixed;strokeColor=#000000;fillStyle=auto;fillColor=#000000;" parent="1" vertex="1">
                    <mxGeometry x="215" y="810" width="15" height="15" as="geometry"/>
                </mxCell>
                <mxCell id="33" value="" style="ellipse;whiteSpace=wrap;html=1;aspect=fixed;strokeColor=#000000;fillStyle=auto;fillColor=#000000;" parent="1" vertex="1">
                    <mxGeometry x="400" y="760" width="15" height="15" as="geometry"/>
                </mxCell>
                <mxCell id="34" value="" style="endArrow=none;html=1;entryX=0.5;entryY=1;entryDx=0;entryDy=0;exitX=0.5;exitY=0;exitDx=0;exitDy=0;strokeColor=#000000;" parent="1" source="26" target="33" edge="1">
                    <mxGeometry width="50" height="50" relative="1" as="geometry">
                        <mxPoint x="402.5" y="920" as="sourcePoint"/>
                        <mxPoint x="452.5" y="870" as="targetPoint"/>
                    </mxGeometry>
                </mxCell>
                <mxCell id="40" value="" style="endArrow=none;html=1;strokeColor=#000000;" parent="1" edge="1">
                    <mxGeometry width="50" height="50" relative="1" as="geometry">
                        <mxPoint x="77.49999999999989" y="730" as="sourcePoint"/>
                        <mxPoint x="797.5" y="730" as="targetPoint"/>
                    </mxGeometry>
                </mxCell>
                <mxCell id="41" value="k = 2" style="text;html=1;align=center;verticalAlign=middle;whiteSpace=wrap;rounded=0;strokeColor=none;" parent="1" vertex="1">
                    <mxGeometry x="80" y="802.5" width="60" height="30" as="geometry"/>
                </mxCell>
                <mxCell id="42" value="" style="ellipse;whiteSpace=wrap;html=1;aspect=fixed;strokeColor=#000000;fillColor=#000000;" parent="1" vertex="1">
                    <mxGeometry x="377.5" y="650" width="15" height="15" as="geometry"/>
                </mxCell>
                <mxCell id="43" value="i = 1" style="text;html=1;align=center;verticalAlign=middle;whiteSpace=wrap;rounded=0;strokeColor=none;" parent="1" vertex="1">
                    <mxGeometry x="402" y="691" width="60" height="30" as="geometry"/>
                </mxCell>
                <mxCell id="44" value="" style="ellipse;whiteSpace=wrap;html=1;aspect=fixed;strokeColor=#000000;fillColor=#000000;" parent="1" vertex="1">
                    <mxGeometry x="467.5" y="650" width="15" height="15" as="geometry"/>
                </mxCell>
                <mxCell id="45" value="" style="ellipse;whiteSpace=wrap;html=1;aspect=fixed;strokeColor=#000000;fillColor=#000000;" parent="1" vertex="1">
                    <mxGeometry x="422.5" y="650" width="15" height="15" as="geometry"/>
                </mxCell>
                <mxCell id="58" value="k = 3" style="text;html=1;align=center;verticalAlign=middle;whiteSpace=wrap;rounded=0;strokeColor=none;" parent="1" vertex="1">
                    <mxGeometry x="80" y="642.5" width="60" height="30" as="geometry"/>
                </mxCell>
                <mxCell id="63" value="" style="endArrow=classic;html=1;exitX=0.5;exitY=1;exitDx=0;exitDy=0;" parent="1" edge="1" source="43">
                    <mxGeometry width="50" height="50" relative="1" as="geometry">
                        <mxPoint x="362" y="716" as="sourcePoint"/>
                        <mxPoint x="432" y="750" as="targetPoint"/>
                    </mxGeometry>
                </mxCell>
                <mxCell id="66" value="" style="endArrow=classic;html=1;exitX=0.5;exitY=1;exitDx=0;exitDy=0;" parent="1" source="27" edge="1">
                    <mxGeometry width="50" height="50" relative="1" as="geometry">
                        <mxPoint x="437.5" y="925" as="sourcePoint"/>
                        <mxPoint x="438" y="930" as="targetPoint"/>
                    </mxGeometry>
                </mxCell>
                <mxCell id="68" value="" style="endArrow=classic;html=1;exitX=0.375;exitY=1;exitDx=0;exitDy=0;exitPerimeter=0;" parent="1" source="11" edge="1">
                    <mxGeometry width="50" height="50" relative="1" as="geometry">
                        <mxPoint x="360" y="980" as="sourcePoint"/>
                        <mxPoint x="430" y="1020" as="targetPoint"/>
                    </mxGeometry>
                </mxCell>
                <mxCell id="69" value="" style="endArrow=classic;html=1;dashed=1;exitX=0.75;exitY=1;exitDx=0;exitDy=0;" parent="1" edge="1">
                    <mxGeometry width="50" height="50" relative="1" as="geometry">
                        <mxPoint x="444.5" y="985" as="sourcePoint"/>
                        <mxPoint x="445" y="1020" as="targetPoint"/>
                    </mxGeometry>
                </mxCell>
                <mxCell id="70" value="" style="endArrow=classic;html=1;dashed=1;exitX=0.608;exitY=1.029;exitDx=0;exitDy=0;exitPerimeter=0;" parent="1" source="27" edge="1">
                    <mxGeometry width="50" height="50" relative="1" as="geometry">
                        <mxPoint x="223.75" y="890" as="sourcePoint"/>
                        <mxPoint x="460" y="1020" as="targetPoint"/>
                        <Array as="points">
                            <mxPoint x="480" y="950"/>
                        </Array>
                    </mxGeometry>
                </mxCell>
                <mxCell id="74" value="" style="endArrow=classic;html=1;dashed=1;exitX=0.25;exitY=1;exitDx=0;exitDy=0;" parent="1" edge="1" source="43">
                    <mxGeometry width="50" height="50" relative="1" as="geometry">
                        <mxPoint x="310" y="700" as="sourcePoint"/>
                        <mxPoint x="417" y="750" as="targetPoint"/>
                    </mxGeometry>
                </mxCell>
                <mxCell id="3_0DPra0TCn6SdxwEZf6-81" value="" style="endArrow=classic;html=1;exitX=0;exitY=0.75;exitDx=0;exitDy=0;" parent="1" edge="1">
                    <mxGeometry width="50" height="50" relative="1" as="geometry">
                        <mxPoint x="248" y="869" as="sourcePoint"/>
                        <mxPoint x="391" y="936" as="targetPoint"/>
                    </mxGeometry>
                </mxCell>
                <mxCell id="3_0DPra0TCn6SdxwEZf6-82" value="" style="endArrow=classic;html=1;dashed=1;exitX=0;exitY=0.75;exitDx=0;exitDy=0;" parent="1" edge="1">
                    <mxGeometry width="50" height="50" relative="1" as="geometry">
                        <mxPoint x="242.99999999999932" y="880" as="sourcePoint"/>
                        <mxPoint x="385.4999999999993" y="947.5" as="targetPoint"/>
                    </mxGeometry>
                </mxCell>
            </root>
        </mxGraphModel>
    </diagram>
</mxfile>